<?xml version="1.0" standalone="no"?>
<!DOCTYPE svg PUBLIC "-//W3C//DTD SVG 20010904//EN"
 "http://www.w3.org/TR/2001/REC-SVG-20010904/DTD/svg10.dtd">
<svg version="1.0" xmlns="http://www.w3.org/2000/svg"
 width="225.000000pt" height="225.000000pt" viewBox="0 0 225.000000 225.000000"
 preserveAspectRatio="xMidYMid meet">
<metadata>
Created by potrace 1.16, written by Peter Selinger 2001-2019
</metadata>
<g transform="translate(0.000000,225.000000) scale(0.100000,-0.100000)"
fill="#000000" stroke="none">
<path d="M989 2001 c-18 -18 -57 -40 -92 -52 -311 -103 -513 -430 -468 -754 7
-48 20 -110 31 -136 10 -27 14 -52 9 -55 -5 -3 -9 -23 -9 -45 0 -28 6 -42 20
-51 18 -12 20 -24 20 -155 0 -165 -13 -143 140 -249 l99 -69 3 -100 3 -100
374 -3 c293 -2 376 1 383 10 4 7 8 54 8 105 l0 91 113 79 112 79 3 149 c2 122
5 151 18 158 24 13 35 52 23 84 -7 22 -5 42 12 88 30 84 38 266 15 367 -52
236 -249 447 -478 513 -37 10 -59 23 -63 34 -9 29 -56 45 -88 30 -52 -24 -56
-109 -5 -124 16 -6 18 -19 18 -146 0 -85 4 -139 10 -139 5 0 33 9 62 20 48 18
53 18 70 3 13 -12 18 -31 18 -73 l0 -58 -91 -86 c-50 -48 -96 -85 -102 -83 -5
1 -27 41 -47 88 -34 79 -35 86 -21 110 13 24 13 29 -2 53 -31 46 -97 26 -97
-30 0 -17 9 -30 30 -42 22 -13 39 -39 70 -111 46 -107 51 -93 -53 -157 l-57
-36 -123 37 c-118 35 -125 36 -160 22 -21 -10 -39 -12 -42 -6 -4 5 -22 9 -40
9 -40 0 -60 -27 -51 -66 11 -44 91 -44 102 0 5 23 41 46 71 46 20 0 186 -50
196 -59 4 -4 -50 -35 -120 -69 -251 -120 -280 -124 -307 -46 -25 74 -39 194
-32 267 l8 67 156 0 c145 0 157 -1 178 -21 28 -27 70 -19 85 15 25 53 -42 98
-85 57 -21 -19 -33 -21 -173 -21 l-151 0 10 38 c51 184 224 359 422 426 42 15
51 15 65 2 44 -39 121 -9 121 48 0 31 -28 64 -62 72 -22 5 -34 0 -59 -25z
m374 -111 c29 -11 67 -29 86 -41 33 -20 33 -21 27 -71 -8 -61 -35 -132 -73
-195 l-28 -48 -3 44 c-3 35 1 46 17 58 25 17 28 65 7 82 -24 20 -69 9 -83 -19
-7 -14 -30 -33 -53 -42 l-40 -17 0 120 c0 113 1 122 23 140 24 21 39 19 120
-11z m334 -306 c78 -150 85 -242 27 -356 -36 -71 -148 -185 -248 -252 -90 -61
-293 -162 -343 -172 -36 -7 -204 32 -328 77 l-80 28 31 -27 c27 -23 31 -34 32
-76 1 -142 188 -198 267 -81 32 48 66 37 150 -45 39 -38 82 -72 97 -75 22 -6
48 4 125 45 166 89 153 71 153 214 l0 124 46 38 c26 20 66 64 90 97 48 65 55
57 29 -31 -13 -44 -21 -54 -50 -67 -56 -23 -67 -96 -20 -122 13 -8 15 -29 13
-143 l-3 -134 -109 -78 c-60 -42 -113 -83 -117 -90 -5 -7 -9 -50 -9 -95 l0
-83 -55 0 -55 0 0 38 c0 50 -14 71 -37 56 -12 -7 -19 -26 -21 -53 l-3 -41 -65
0 -64 0 0 60 c0 33 -4 61 -10 62 -33 4 -35 1 -40 -57 l-5 -60 -65 0 -65 0 -5
45 c-4 37 -9 45 -25 45 -16 0 -21 -8 -25 -45 l-5 -45 -55 0 -55 0 -5 90 -5 90
-117 84 -118 84 0 124 c0 119 1 127 25 155 14 16 25 37 25 47 0 13 24 27 85
51 197 76 441 218 570 330 153 134 234 262 270 425 l7 30 62 -65 c36 -39 78
-98 103 -146z"/>
<path d="M1000 1783 c-12 -16 -44 -37 -73 -48 -49 -20 -52 -23 -57 -60 -5 -38
-7 -40 -44 -43 -30 -3 -41 1 -53 17 -21 30 -68 28 -89 -4 -15 -23 -15 -27 0
-50 20 -31 68 -34 88 -6 11 15 28 21 69 23 l54 3 3 42 c3 40 5 42 49 57 41 14
48 14 63 1 9 -8 24 -15 33 -15 21 0 57 35 57 55 0 21 -36 55 -59 55 -11 0 -29
-12 -41 -27z"/>
</g>
</svg>
