<?xml version="1.0" standalone="no"?>
<!DOCTYPE svg PUBLIC "-//W3C//DTD SVG 20010904//EN"
 "http://www.w3.org/TR/2001/REC-SVG-20010904/DTD/svg10.dtd">
<svg version="1.0" xmlns="http://www.w3.org/2000/svg"
 width="225.000000pt" height="225.000000pt" viewBox="0 0 225.000000 225.000000"
 preserveAspectRatio="xMidYMid meet">
<metadata>
Created by potrace 1.16, written by Peter Selinger 2001-2019
</metadata>
<g transform="translate(0.000000,225.000000) scale(0.100000,-0.100000)"
fill="#000000" stroke="none">
<path d="M375 1914 c-180 -28 -302 -88 -319 -157 -12 -48 4 -78 63 -118 94
-62 275 -99 481 -99 312 0 550 85 550 198 0 26 -41 75 -83 100 -131 79 -448
114 -692 76z"/>
<path d="M50 1470 c0 -72 3 -92 20 -113 69 -87 265 -140 525 -141 208 0 366
30 472 90 71 41 83 64 83 165 l0 88 -44 -25 c-150 -84 -462 -124 -694 -89
-151 22 -214 39 -294 78 l-68 33 0 -86z"/>
<path d="M50 1151 c0 -44 5 -91 11 -105 13 -28 65 -66 125 -91 54 -23 197 -55
243 -55 33 0 40 4 51 29 18 46 79 100 124 112 59 16 231 6 284 -15 39 -17 42
-21 42 -58 0 -39 1 -40 27 -33 55 14 133 57 162 91 29 33 31 39 31 120 l0 84
-42 -21 c-128 -66 -300 -99 -508 -99 -208 0 -380 33 -508 99 l-42 21 0 -79z"/>
<path d="M612 1021 c-92 -32 -134 -93 -135 -196 -1 -113 39 -154 222 -229 102
-41 131 -79 110 -143 -25 -76 -144 -85 -269 -20 l-71 37 3 -73 3 -72 60 -24
c48 -20 79 -25 156 -25 87 -1 100 2 154 29 77 40 105 89 105 184 -1 125 -51
186 -199 242 -85 32 -141 73 -141 103 0 27 22 63 45 76 37 20 144 9 202 -22
l51 -26 6 60 c4 36 3 65 -2 70 -17 17 -145 48 -197 48 -27 -1 -74 -9 -103 -19z"/>
<path d="M1233 1024 c-62 -23 -119 -92 -146 -178 -18 -57 -22 -94 -21 -191 1
-241 76 -363 235 -382 46 -5 55 -11 103 -66 l54 -60 46 38 47 38 -42 43 -42
43 30 35 c17 19 41 61 54 93 20 51 23 76 23 213 1 125 -3 165 -17 207 -25 72
-69 129 -119 154 -55 28 -149 34 -205 13z m145 -139 c20 -17 34 -42 43 -78 17
-67 17 -237 0 -304 -30 -119 -139 -138 -187 -32 -28 63 -28 316 0 372 33 67
94 84 144 42z"/>
<path d="M1730 655 l0 -365 230 0 230 0 0 65 0 65 -155 0 -155 0 0 300 0 300
-75 0 -75 0 0 -365z"/>
<path d="M50 819 c0 -80 2 -90 26 -119 51 -60 167 -102 354 -125 192 -25 340
-16 238 14 -107 32 -191 100 -203 165 -7 33 -9 35 -58 41 -96 12 -220 46 -289
79 l-68 32 0 -87z"/>
<path d="M1030 851 c-29 -17 -146 -43 -250 -55 -72 -9 -99 -16 -85 -21 127
-50 173 -73 205 -104 20 -20 39 -43 42 -51 4 -13 12 -12 54 5 l49 21 6 84 c3
47 9 95 13 108 8 24 -6 29 -34 13z"/>
</g>
</svg>
